<svg width="24" height="24" viewBox="0 0 24 24" fill="none" xmlns="http://www.w3.org/2000/svg">
<path d="M18.1666 14.3798C17.4949 14.2353 16.9635 14.5471 16.493 14.8195C16.0111 15.1001 15.0949 15.8434 14.5697 15.6532C11.8808 14.5461 9.35189 12.1926 8.25714 9.49292C8.0642 8.95653 8.804 8.03446 9.08259 7.54692C9.35292 7.07498 9.65833 6.53858 9.51904 5.86185C9.39316 5.25372 7.76497 3.18194 7.18923 2.61539C6.80952 2.24116 6.42053 2.03533 6.02123 2.00207C4.51995 1.93762 2.84327 3.94079 2.54921 4.42002C1.8125 5.44187 1.81663 6.80158 2.56159 8.45027C4.35693 12.8787 11.1472 19.5618 15.5922 21.4247C16.4125 21.8082 17.1626 22.0005 17.8364 22.0005C18.4957 22.0005 19.0828 21.8166 19.5874 21.4517C19.9681 21.2323 22.0534 19.4724 21.9987 17.9308C21.9657 17.5378 21.7604 17.1449 21.391 16.7644C20.8286 16.1833 18.7702 14.5066 18.1666 14.3798Z" fill="#200E32"/>
</svg>
